HIERARCHY
ROOT hip
{
  OFFSET 0.0 0.0 0.0
  CHANNELS 6 Xposition Yposition Zposition Zrotation Yrotation Xrotation
  JOINT abdomen
  {
    OFFSET 0.0 20.6881 -0.73152
    CHANNELS 3 Zrotation Xrotation Yrotation
    JOINT chest
    {
      OFFSET 0.0 11.7043 -0.48768
      CHANNELS 3 Zrotation Xrotation Yrotation
      JOINT neck
      {
        OFFSET 0.0 22.1894 -2.19456
        CHANNELS 3 Zrotation Xrotation Yrotation
        JOINT head
        {
          OFFSET -0.24384 7.07133 1.2192
          CHANNELS 3 Zrotation Xrotation Yrotation
          JOINT leftEye
          {
            OFFSET 4.14528 8.04674 8.04672
            CHANNELS 3 Zrotation Xrotation Yrotation
            End Site
            {
              OFFSET 1.0 0.0 0.0
            }
          }
          JOINT rightEye
          {
            OFFSET -3.6576 8.04674 8.04672
            CHANNELS 3 Zrotation Xrotation Yrotation
            End Site
            {
              OFFSET 1.0 0.0 0.0
            }
          }
        }
      }
      JOINT rCollar
      {
        OFFSET -2.68224 19.2634 -4.8768
        CHANNELS 3 Zrotation Xrotation Yrotation
        JOINT rShldr
        {
          OFFSET -8.77824 -1.95073 1.46304
          CHANNELS 3 Zrotation Xrotation Yrotation
          JOINT rForeArm
          {
            OFFSET -28.1742 -1.7115 0.48768
            CHANNELS 3 Zrotation Xrotation Yrotation
            JOINT rHand
            {
              OFFSET -22.5879 0.773209 7.07136
              CHANNELS 3 Zrotation Xrotation Yrotation
              JOINT rThumb1
              {
                OFFSET -1.2192 -0.487915 3.41376
                CHANNELS 3 Zrotation Xrotation Yrotation
                JOINT rThumb2
                {
                  OFFSET -3.37035 -0.52449 3.41376
                  CHANNELS 3 Zrotation Xrotation Yrotation
                  End Site
                  {
                    OFFSET -1.78271 -1.18214 1.43049
                  }
                }
              }
              JOINT rIndex1
              {
                OFFSET -7.75947 0.938293 5.60832
                CHANNELS 3 Zrotation Xrotation Yrotation
                JOINT rIndex2
                {
                  OFFSET -2.54057 -0.884171 1.56538
                  CHANNELS 3 Zrotation Xrotation Yrotation
                  End Site
                  {
                    OFFSET -1.62519 -0.234802 1.16502
                  }
                }
              }
              JOINT rMid1
              {
                OFFSET -8.24714 1.18213 3.41376
                CHANNELS 3 Zrotation Xrotation Yrotation
                JOINT rMid2
                {
                  OFFSET -3.10165 -0.590103 1.0647
                  CHANNELS 3 Zrotation Xrotation Yrotation
                  End Site
                  {
                    OFFSET -2.48547 -0.328903 0.83742
                  }
                }
              }
              JOINT rRing1
              {
                OFFSET -8.82822 0.546677 1.51678
                CHANNELS 3 Zrotation Xrotation Yrotation
                JOINT rRing2
                {
                  OFFSET -2.60934 -0.819778 -0.0198488
                  CHANNELS 3 Zrotation Xrotation Yrotation
                  End Site
                  {
                    OFFSET -2.33842 -0.294052 0.168128
                  }
                }
              }
              JOINT rPinky1
              {
                OFFSET -8.27202 -0.0477905 -0.4584
                CHANNELS 3 Zrotation Xrotation Yrotation
                JOINT rPinky2
                {
                  OFFSET -1.82734 -0.647385 -0.700984
                  CHANNELS 3 Zrotation Xrotation Yrotation
                  End Site
                  {
                    OFFSET -1.69225 -0.51767 -0.607171
                  }
                }
              }
            }
          }
        }
      }
      JOINT lCollar
      {
        OFFSET 2.68224 19.2634 -4.8768
        CHANNELS 3 Zrotation Xrotation Yrotation
        JOINT lShldr
        {
          OFFSET 8.77824 -1.95073 1.46304
          CHANNELS 3 Zrotation Xrotation Yrotation
          JOINT lForeArm
          {
            OFFSET 28.1742 -1.7115 0.48768
            CHANNELS 3 Zrotation Xrotation Yrotation
            JOINT lHand
            {
              OFFSET 22.5879 0.773209 7.07136
              CHANNELS 3 Zrotation Xrotation Yrotation
              JOINT lThumb1
              {
                OFFSET 1.2192 -0.487915 3.41376
                CHANNELS 3 Zrotation Xrotation Yrotation
                JOINT lThumb2
                {
                  OFFSET 3.37035 -0.52449 3.41376
                  CHANNELS 3 Zrotation Xrotation Yrotation
                  End Site
                  {
                    OFFSET 1.78271 -1.18214 1.43049
                  }
                }
              }
              JOINT lIndex1
              {
                OFFSET 7.75947 0.938293 5.60832
                CHANNELS 3 Zrotation Xrotation Yrotation
                JOINT lIndex2
                {
                  OFFSET 2.54057 -0.884171 1.56538
                  CHANNELS 3 Zrotation Xrotation Yrotation
                  End Site
                  {
                    OFFSET 1.62519 -0.234802 1.16502
                  }
                }
              }
              JOINT lMid1
              {
                OFFSET 8.24714 1.18213 3.41376
                CHANNELS 3 Zrotation Xrotation Yrotation
                JOINT lMid2
                {
                  OFFSET 3.10165 -0.590103 1.0647
                  CHANNELS 3 Zrotation Xrotation Yrotation
                  End Site
                  {
                    OFFSET 2.48547 -0.328903 0.83742
                  }
                }
              }
              JOINT lRing1
              {
                OFFSET 8.82822 0.546677 1.51678
                CHANNELS 3 Zrotation Xrotation Yrotation
                JOINT lRing2
                {
                  OFFSET 2.60934 -0.819778 -0.0198488
                  CHANNELS 3 Zrotation Xrotation Yrotation
                  End Site
                  {
                    OFFSET 2.33842 -0.294052 0.168128
                  }
                }
              }
              JOINT lPinky1
              {
                OFFSET 8.27202 -0.0477905 -0.4584
                CHANNELS 3 Zrotation Xrotation Yrotation
                JOINT lPinky2
                {
                  OFFSET 1.82734 -0.647385 -0.700984
                  CHANNELS 3 Zrotation Xrotation Yrotation
                  End Site
                  {
                    OFFSET 1.69225 -0.51767 -0.607171
                  }
                }
              }
            }
          }
        }
      }
    }
  }
  JOINT rButtock
  {
    OFFSET -8.77824 4.35084 1.2192
    CHANNELS 3 Zrotation Xrotation Yrotation
    JOINT rThigh
    {
      OFFSET 0.0 -1.70687 -2.19456
      CHANNELS 3 Zrotation Xrotation Yrotation
      JOINT rShin
      {
        OFFSET 0.0 -36.8199 0.73152
        CHANNELS 3 Zrotation Xrotation Yrotation
        JOINT rFoot
        {
          OFFSET 0.73152 -45.1104 -5.12064
          CHANNELS 3 Zrotation Xrotation Yrotation
          End Site
          {
            OFFSET -1.1221 -3.69964 12.103
          }
        }
      }
    }
  }
  JOINT lButtock
  {
    OFFSET 8.77824 4.35084 1.2192
    CHANNELS 3 Zrotation Xrotation Yrotation
    JOINT lThigh
    {
      OFFSET 0.0 -1.70687 -2.19456
      CHANNELS 3 Zrotation Xrotation Yrotation
      JOINT lShin
      {
        OFFSET 0.0 -36.8199 0.73152
        CHANNELS 3 Zrotation Xrotation Yrotation
        JOINT lFoot
        {
          OFFSET -0.73152 -45.1104 -5.12064
          CHANNELS 3 Zrotation Xrotation Yrotation
          End Site
          {
            OFFSET 1.1221 -3.69964 12.103
          }
        }
      }
    }
  }
}
MOTION
Frames: 6
Frame Time: 0.00833333
-2.79938 83.959 37.517799999999994 -5.9923 6.2742 1.1627 9.56632 4.26216 0.000411815 1.79548 -2.89272 0.14875 6.25071 -0.227496 2.4287 -11.2912 2.6466 3.34282 -0.0 0.0 0.0 -0.0 0.0 0.0 0.0 0.0 0.0 0.0 0.0 0.0 0.0 0.0 0.0 -0.0136321 -3.33746 -0.469583 1.8393e-09 -5.76502e-09 -8.63346e-10 3.18368e-09 -9.98293e-09 -1.49656e-09 1.83931e-09 -5.76502e-09 -8.63363e-10 7.73091 5.47488 0.417314 1.8393e-09 -5.76502e-09 -8.63349e-10 2.90554 0.965183 0.102902 1.83931e-09 -5.76502e-09 -8.63353e-10 10.2786 0.731801 0.0259123 1.8393e-09 -5.76502e-09 -8.63351e-10 2.22167 -0.733487 -0.20892 0.0 0.0 0.0 0.0 0.0 0.0 0.0 0.0 0.0 0.0314462 -5.04889 0.711444 5.78088e-10 1.57202e-09 1.95164e-10 9.95174e-10 2.71518e-09 3.33969e-10 5.78082e-10 1.57201e-09 1.95177e-10 -7.73091 5.47488 -0.417314 5.78091e-10 1.57202e-09 1.95167e-10 -2.90554 0.965183 -0.102902 5.7808e-10 1.57202e-09 1.95162e-10 -10.2786 0.731801 -0.0259123 5.78095e-10 1.57202e-09 1.95157e-10 -2.22167 -0.733487 0.20892 -2.03217e-16 0.0 -3.88251e-19 9.33185 -2.37753 -3.52066 -0.0730799 22.822 0.471437 -3.07055 -9.44533 -11.2275 2.03217e-16 0.0 3.88251e-19 12.51 -32.3667 3.21655 0.422414 43.7452 -0.766927 3.46191 -3.78422 17.1904
-2.7563700000000004 83.9759 38.2573 -6.1458 6.2501 1.1232 9.73314 4.26262 1.17868 1.3894 -2.84745 0.47042 5.95245 -0.270932 2.16323 -10.8349 2.63471 2.89288 -0.0 0.0 0.0 -0.0 0.0 0.0 0.0 0.0 0.0 0.0 0.0 0.0 0.0 0.0 0.0 -0.0126062 -3.20814 -0.451349 1.41412e-09 -5.03005e-09 -8.9221e-10 2.44832e-09 -8.71077e-09 -1.54747e-09 1.41414e-09 -5.03005e-09 -8.92228e-10 7.73091 5.47488 0.417314 1.41413e-09 -5.03004e-09 -8.92212e-10 2.90554 0.965183 0.102902 1.41414e-09 -5.03004e-09 -8.92219e-10 10.2786 0.731801 0.0259123 1.41412e-09 -5.03005e-09 -8.92218e-10 2.22167 -0.733487 -0.20892 0.0 0.0 0.0 0.0 0.0 0.0 0.0 0.0 0.0 0.0331776 -5.18467 0.730683 5.82542e-10 1.47928e-09 1.27265e-10 1.0045e-09 2.55935e-09 2.16423e-10 5.82537e-10 1.47928e-09 1.27273e-10 -7.73091 5.47488 -0.417314 5.82544e-10 1.47929e-09 1.27266e-10 -2.90554 0.965183 -0.102902 5.82535e-10 1.47929e-09 1.27261e-10 -10.2786 0.731801 -0.0259123 5.82551e-10 1.47929e-09 1.27252e-10 -2.22167 -0.733487 0.20892 -2.03217e-16 0.0 -3.88251e-19 9.50623 -1.4638 -3.41638 -0.0690664 22.0579 0.458923 -3.05243 -9.25992 -11.3139 2.03217e-16 0.0 3.88251e-19 12.2943 -32.8783 3.00493 0.390461 42.3131 -0.714678 3.45598 -3.6668 17.4572
-2.71016 83.99 38.9974 -6.2948 6.2344 1.0946 9.87037 4.24629 2.32827 0.998053 -2.79865 0.784066 5.67029 -0.301134 1.89983 -10.3912 2.62841 2.44475 -0.0 0.0 0.0 -0.0 0.0 0.0 0.0 0.0 0.0 0.0 0.0 0.0 0.0 0.0 0.0 -0.012039 -3.1311 -0.44049 9.76999e-10 -3.99957e-09 -8.5735e-10 1.69212e-09 -6.92696e-09 -1.48766e-09 9.77013e-10 -3.99957e-09 -8.57369e-10 7.73091 5.47488 0.417314 9.77003e-10 -3.99956e-09 -8.57354e-10 2.90554 0.965183 0.102902 9.77014e-10 -3.99957e-09 -8.57361e-10 10.2786 0.731801 0.0259123 9.76994e-10 -3.99957e-09 -8.5736e-10 2.22167 -0.733487 -0.20892 0.0 0.0 0.0 0.0 0.0 0.0 0.0 0.0 0.0 0.0354167 -5.36383 0.756069 5.71962e-10 1.35571e-09 7.01471e-11 9.87662e-10 2.34843e-09 1.17986e-10 5.71959e-10 1.35571e-09 7.01535e-11 -7.73091 5.47488 -0.417314 5.71965e-10 1.35572e-09 7.01471e-11 -2.90554 0.965183 -0.102902 5.71956e-10 1.35572e-09 7.01432e-11 -10.2786 0.731801 -0.0259123 5.71971e-10 1.35571e-09 7.01312e-11 -2.22167 -0.733487 0.20892 -2.03217e-16 0.0 -3.88251e-19 9.67118 -0.544467 -3.31175 -0.0650601 21.2728 0.444821 -3.03677 -9.05643 -11.429 2.03217e-16 0.0 3.88251e-19 12.0475 -33.3646 2.75972 0.359956 40.8548 -0.662192 3.43 -3.5451 17.6287
-2.6578 83.9999 39.7416 -6.4264 6.2343 1.0754 9.97634 4.21269 3.44889 0.619781 -2.74526 1.08951 5.40655 -0.313018 1.63676 -9.95767 2.62992 1.99521 -0.0 0.0 0.0 -0.0 0.0 0.0 0.0 0.0 0.0 0.0 0.0 0.0 0.0 0.0 0.0 -0.0122069 -3.14978 -0.443125 5.04822e-10 -2.4781e-09 -7.20677e-10 8.74996e-10 -4.29273e-09 -1.25112e-09 5.04834e-10 -2.4781e-09 -7.20697e-10 7.73091 5.47488 0.417314 5.04825e-10 -2.4781e-09 -7.20682e-10 2.90554 0.965183 0.102902 5.04836e-10 -2.4781e-09 -7.20688e-10 10.2786 0.731801 0.0259123 5.04817e-10 -2.4781e-09 -7.20687e-10 2.22167 -0.733487 -0.20892 0.0 0.0 0.0 0.0 0.0 0.0 0.0 0.0 0.0 0.0384779 -5.59673 0.789096 5.65299e-10 1.20503e-09 2.70363e-11 9.77464e-10 2.0881e-09 4.46501e-11 5.65296e-10 1.20503e-09 2.70445e-11 -7.73091 5.47488 -0.417314 5.65301e-10 1.20503e-09 2.70365e-11 -2.90554 0.965183 -0.102902 5.65293e-10 1.20503e-09 2.70335e-11 -10.2786 0.731801 -0.0259123 5.65308e-10 1.20503e-09 2.7022e-11 -2.22167 -0.733487 0.20892 -2.03217e-16 0.0 -3.88251e-19 9.8274 0.379463 -3.20436 -0.0613279 20.4666 0.428825 -3.02538 -8.83627 -11.5814 2.03217e-16 0.0 3.88251e-19 11.7671 -33.8207 2.48457 0.330785 39.3552 -0.608459 3.3811 -3.41499 17.6971
-2.5987099999999996 84.0084 40.4884 -6.5402 6.2502 1.0668 10.0584 4.16578 4.54637 0.252328 -2.68526 1.38831 5.15578 -0.313398 1.37467 -9.53103 2.63454 1.54583 -0.0 0.0 0.0 -0.0 0.0 0.0 0.0 0.0 0.0 0.0 0.0 0.0 0.0 0.0 0.0 -0.0128861 -3.23412 -0.455016 -5.14566e-11 -4.91329e-10 -5.12003e-10 -8.77717e-11 -8.52709e-10 -8.89623e-10 -5.14495e-11 -4.9133e-10 -5.12025e-10 7.73091 5.47488 0.417314 -5.14561e-11 -4.91325e-10 -5.12012e-10 2.90554 0.965183 0.102902 -5.1446e-11 -4.91324e-10 -5.12014e-10 10.2786 0.731801 0.0259123 -5.14612e-11 -4.91324e-10 -5.12014e-10 2.22167 -0.733487 -0.20892 0.0 0.0 0.0 0.0 0.0 0.0 0.0 0.0 0.0 0.0425072 -5.87875 0.82914 5.41172e-10 9.66163e-10 -8.10743e-12 9.37134e-10 1.67377e-09 -1.42669e-11 5.4117e-10 9.66173e-10 -8.09511e-12 -7.73091 5.47488 -0.417314 5.41175e-10 9.66167e-10 -8.10624e-12 -2.90554 0.965183 -0.102902 5.41166e-10 9.66165e-10 -8.10798e-12 -10.2786 0.731801 -0.0259123 5.4118e-10 9.66162e-10 -8.11737e-12 -2.22167 -0.733487 0.20892 -2.03217e-16 0.0 -3.88251e-19 9.97673 1.30928 -3.08776 -0.0580885 19.6367 0.410989 -3.01648 -8.59577 -11.7683 2.03217e-16 0.0 3.88251e-19 11.4574 -34.2434 2.18223 0.303475 37.8097 -0.553787 3.30966 -3.27142 17.6708
-2.52654 84.0152 41.2403 -6.6152 6.2989 1.0677 10.1182 4.10441 5.61672 -0.0990498 -2.62255 1.67969 4.91755 -0.308577 1.11696 -9.11834 2.64083 1.10263 -0.0 0.0 0.0 -0.0 0.0 0.0 0.0 0.0 0.0 0.0 0.0 0.0 0.0 0.0 0.0 -0.0134959 -3.30894 -0.465566 -6.03078e-10 1.54016e-09 -2.94674e-10 -1.04248e-09 2.66435e-09 -5.12898e-10 -6.03076e-10 1.54016e-09 -2.94697e-10 7.73091 5.47488 0.417314 -6.0308e-10 1.54016e-09 -2.94685e-10 2.90554 0.965183 0.102902 -6.03071e-10 1.54016e-09 -2.94684e-10 10.2786 0.731801 0.0259123 -6.03083e-10 1.54016e-09 -2.94684e-10 2.22167 -0.733487 -0.20892 0.0 0.0 0.0 0.0 0.0 0.0 0.0 0.0 0.0 0.0472311 -6.19003 0.87339 4.72978e-10 6.76525e-10 -3.80111e-11 8.20426e-10 1.17113e-09 -6.4235e-11 4.72977e-10 6.76539e-10 -3.79945e-11 -7.73091 5.47488 -0.417314 4.72982e-10 6.76527e-10 -3.80088e-11 -2.90554 0.965183 -0.102902 4.72972e-10 6.76524e-10 -3.80094e-11 -10.2786 0.731801 -0.0259123 4.72984e-10 6.76522e-10 -3.80165e-11 -2.22167 -0.733487 0.20892 -2.03217e-16 0.0 -3.88251e-19 10.1157 2.24628 -2.97199 -0.0549373 18.7853 0.392085 -3.00547 -8.33479 -11.9727 2.03217e-16 0.0 3.88251e-19 11.1186 -34.645 1.84093 0.278447 36.2553 -0.500251 3.22425 -3.12687 17.5617
